<svg width="150" height="31" viewBox="0 0 150 31" fill="none" xmlns="http://www.w3.org/2000/svg">
<path fill-rule="evenodd" clip-rule="evenodd" d="M42.9692 16.8763C42.8659 15.1542 41.3842 13.8454 39.6613 13.9488C38.8343 13.9832 38.1107 14.3621 37.5938 14.9476C37.5593 14.982 37.5249 15.0164 37.4904 15.0509C36.7668 15.843 31.6325 21.3881 28.0489 24.3156C25.0855 26.761 20.3992 29.3441 14.4379 29.1718C6.75379 28.9308 0.551329 23.4201 0.551329 15.0853C0.551329 6.75051 7.02945 0.24109 15.3683 0.24109C18.504 0.24109 21.3985 1.20545 23.8105 2.82419L23.9484 2.61754C21.4674 0.964359 18.504 0 15.3339 0C6.89162 0 0 6.85383 0 15.3264C0 23.7646 5.99571 29.654 14.8859 30.8595C19.4688 31.4794 25.4301 29.964 29.3238 27.9664C36.5945 24.2123 42.0044 19.3216 42.0044 19.3216C42.6591 18.7017 43.0382 17.8406 42.9692 16.8763ZM11.7502 21.1814C8.99356 20.7682 6.96053 17.9095 6.89162 14.9476C6.75379 10.5391 10.0273 6.33721 15.3683 6.33721C17.229 6.33721 18.8486 6.85383 20.2958 7.81819L20.4336 7.61154C18.9864 6.61274 17.298 6.09612 15.4028 6.09612C9.85501 6.09612 6.37475 10.4013 6.20246 15.1542C6.09908 18.0473 7.71861 21.1814 10.9232 22.3869C15.6095 24.109 20.2614 21.1126 23.2248 18.1506C25.7402 15.6364 28.6002 12.5022 29.8407 10.6424C30.2542 10.0569 30.4954 9.36805 30.461 8.5759C30.3576 6.85383 28.8759 5.54506 27.153 5.64839C25.9469 5.71727 24.9477 6.47498 24.4997 7.50822C24.2585 8.02484 23.018 10.7457 22.0532 12.7089C21.1917 14.3965 18.2628 22.1458 11.7502 21.1814ZM12.0603 25.1422C7.78753 24.3501 4.06606 21.2848 3.75593 15.843C3.37689 9.29917 8.68344 3.30637 15.3339 3.30637C17.8148 3.30637 20.1235 4.06408 22.0532 5.33841L22.191 5.13177C20.2269 3.82299 17.8837 3.03084 15.3339 3.03084C8.54561 3.03084 2.68773 9.19585 3.17014 15.9808C3.75593 24.2467 10.7165 26.761 12.9907 27.1398C17.677 27.9664 22.3633 26.141 27.3253 22.3525C30.8055 19.7005 34.2169 16.9107 35.8364 14.9131C36.3877 14.3276 36.6979 13.501 36.6634 12.64C36.56 10.9179 35.0783 9.60915 33.3554 9.71247C32.4251 9.78135 31.5981 10.2291 31.0812 10.9179C31.0812 10.9179 27.8077 15.1542 25.3267 18.185C22.3288 21.9736 18.3662 26.3132 12.0603 25.1422Z" fill="#0054A2"/>
<g clip-path="url(#clip0_311_22644)">
<path d="M66.8548 25.5114L61.102 16.1598V25.5114H57.0682V9.00195H61.102L66.8548 18.3584V9.00195H70.8935V25.5114H66.8548Z" fill="#0054A2"/>
<path d="M73.4399 13.9997C73.7676 12.9837 74.2671 12.0292 74.9175 11.1763C75.5497 10.3642 76.3463 9.68977 77.257 9.19558C78.2076 8.70877 79.2636 8.45459 80.3353 8.45459C81.4071 8.45459 82.4631 8.70877 83.4137 9.19558C84.322 9.69112 85.1167 10.3654 85.7483 11.1763C86.3986 12.0292 86.8981 12.9837 87.2259 13.9997C87.9351 16.1183 87.9351 18.4046 87.2259 20.5231C86.8991 21.5381 86.3995 22.4912 85.7483 23.3417C85.1183 24.1553 84.3233 24.8315 83.4137 25.3273C82.4631 25.8141 81.4071 26.0683 80.3353 26.0683C79.2636 26.0683 78.2076 25.8141 77.257 25.3273C76.345 24.8329 75.5482 24.1565 74.9175 23.3417C74.2663 22.4912 73.7666 21.5381 73.4399 20.5231C72.7306 18.4046 72.7306 16.1183 73.4399 13.9997ZM78.7986 12.513C78.3722 12.8081 78.0187 13.1937 77.7643 13.6414C77.4783 14.1514 77.2802 14.7045 77.1782 15.2783C76.9352 16.5847 76.9352 17.9236 77.1782 19.2301C77.2787 19.8088 77.4768 20.3669 77.7643 20.8815C78.0173 21.3288 78.3711 21.7131 78.7986 22.0051C79.2656 22.2889 79.8036 22.4392 80.3526 22.4392C80.9015 22.4392 81.4396 22.2889 81.9065 22.0051C82.334 21.7131 82.6878 21.3288 82.9408 20.8815C83.2283 20.3669 83.4264 19.8088 83.5269 19.2301C83.7699 17.9236 83.7699 16.5847 83.5269 15.2783C83.4249 14.7045 83.2269 14.1514 82.9408 13.6414C82.6865 13.1937 82.333 12.8081 81.9065 12.513C81.4377 12.2344 80.9003 12.0872 80.3526 12.0872C79.8048 12.0872 79.2675 12.2344 78.7986 12.513Z" fill="#0054A2"/>
<path d="M99.6919 8.45459L103.721 9.38927L97.5641 25.5113H93.8849L87.7283 9.38927L91.7572 8.45459L95.7319 20.0776L99.6919 8.45459Z" fill="#0054A2"/>
<path d="M109.646 21.826H115.665V25.5114H105.592V9.00195H115.364V12.6922H109.646V15.0023H114.571V18.6878H109.646V21.826Z" fill="#0054A2"/>
<path d="M127.919 25.5114L122.166 16.1598V25.5114H118.132V9.00195H122.166L127.919 18.3584V9.00195H131.953V25.5114H127.919Z" fill="#0054A2"/>
<path d="M137.947 26.0681L133.918 25.1867L139.932 9.00659H143.345L149.364 25.1867L145.335 26.0681L144.3 22.7411H138.981L137.947 26.0681ZM141.641 14.1546L140.129 19.0508H143.138L141.641 14.1546Z" fill="#0054A2"/>
</g>
<defs>
<clipPath id="clip0_311_22644">
<rect width="92.2955" height="17.6136" fill="white" transform="translate(57.0682 8.45459)"/>
</clipPath>
</defs>
</svg>
