<svg width="150" height="31" viewBox="0 0 150 31" fill="none" xmlns="http://www.w3.org/2000/svg">
<path fill-rule="evenodd" clip-rule="evenodd" d="M42.9692 16.8763C42.8659 15.1542 41.3842 13.8454 39.6613 13.9488C38.8343 13.9832 38.1107 14.3621 37.5938 14.9476C37.5593 14.982 37.5249 15.0164 37.4904 15.0509C36.7668 15.843 31.6325 21.3881 28.0489 24.3156C25.0855 26.761 20.3992 29.3441 14.4379 29.1718C6.75379 28.9308 0.551329 23.4201 0.551329 15.0853C0.551329 6.75051 7.02945 0.24109 15.3683 0.24109C18.504 0.24109 21.3985 1.20545 23.8105 2.82419L23.9484 2.61754C21.4674 0.964359 18.504 0 15.3339 0C6.89162 0 0 6.85383 0 15.3264C0 23.7646 5.99571 29.654 14.8859 30.8595C19.4688 31.4794 25.4301 29.964 29.3238 27.9664C36.5945 24.2123 42.0044 19.3216 42.0044 19.3216C42.6591 18.7017 43.0382 17.8406 42.9692 16.8763ZM11.7502 21.1814C8.99356 20.7682 6.96053 17.9095 6.89162 14.9476C6.75379 10.5391 10.0273 6.33721 15.3683 6.33721C17.229 6.33721 18.8486 6.85383 20.2958 7.81819L20.4336 7.61154C18.9864 6.61274 17.298 6.09612 15.4028 6.09612C9.85501 6.09612 6.37475 10.4013 6.20246 15.1542C6.09908 18.0473 7.71861 21.1814 10.9232 22.3869C15.6095 24.109 20.2614 21.1126 23.2248 18.1506C25.7402 15.6364 28.6002 12.5022 29.8407 10.6424C30.2542 10.0569 30.4954 9.36805 30.461 8.5759C30.3576 6.85383 28.8759 5.54506 27.153 5.64839C25.9469 5.71727 24.9477 6.47498 24.4997 7.50822C24.2585 8.02484 23.018 10.7457 22.0532 12.7089C21.1917 14.3965 18.2628 22.1458 11.7502 21.1814ZM12.0603 25.1422C7.78753 24.3501 4.06606 21.2848 3.75593 15.843C3.37689 9.29917 8.68344 3.30637 15.3339 3.30637C17.8148 3.30637 20.1235 4.06408 22.0532 5.33841L22.191 5.13177C20.2269 3.82299 17.8837 3.03084 15.3339 3.03084C8.54561 3.03084 2.68773 9.19585 3.17014 15.9808C3.75593 24.2467 10.7165 26.761 12.9907 27.1398C17.677 27.9664 22.3633 26.141 27.3253 22.3525C30.8055 19.7005 34.2169 16.9107 35.8364 14.9131C36.3877 14.3276 36.6979 13.501 36.6634 12.64C36.56 10.9179 35.0783 9.60915 33.3554 9.71247C32.4251 9.78135 31.5981 10.2291 31.0812 10.9179C31.0812 10.9179 27.8077 15.1542 25.3267 18.185C22.3288 21.9736 18.3662 26.3132 12.0603 25.1422Z" fill="white"/>
<g clip-path="url(#clip0_311_22654)">
<path d="M66.855 25.5114L61.1022 16.1598V25.5114H57.0684V9.00195H61.1022L66.855 18.3584V9.00195H70.8937V25.5114H66.855Z" fill="white"/>
<path d="M73.4401 13.9997C73.7679 12.9837 74.2674 12.0292 74.9177 11.1763C75.55 10.3642 76.3466 9.68977 77.2573 9.19558C78.2078 8.70877 79.2638 8.45459 80.3356 8.45459C81.4074 8.45459 82.4633 8.70877 83.4139 9.19558C84.3222 9.69112 85.117 10.3654 85.7485 11.1763C86.3989 12.0292 86.8984 12.9837 87.2261 13.9997C87.9354 16.1183 87.9354 18.4046 87.2261 20.5231C86.8994 21.5381 86.3997 22.4912 85.7485 23.3417C85.1185 24.1553 84.3235 24.8315 83.4139 25.3273C82.4633 25.8141 81.4074 26.0683 80.3356 26.0683C79.2638 26.0683 78.2078 25.8141 77.2573 25.3273C76.3453 24.8329 75.5484 24.1565 74.9177 23.3417C74.2665 22.4912 73.7669 21.5381 73.4401 20.5231C72.7309 18.4046 72.7309 16.1183 73.4401 13.9997ZM78.7989 12.513C78.3724 12.8081 78.0189 13.1937 77.7646 13.6414C77.4785 14.1514 77.2805 14.7045 77.1785 15.2783C76.9355 16.5847 76.9355 17.9236 77.1785 19.2301C77.279 19.8088 77.4771 20.3669 77.7646 20.8815C78.0176 21.3288 78.3714 21.7131 78.7989 22.0051C79.2658 22.2889 79.8039 22.4392 80.3528 22.4392C80.9018 22.4392 81.4398 22.2889 81.9068 22.0051C82.3343 21.7131 82.6881 21.3288 82.9411 20.8815C83.2286 20.3669 83.4267 19.8088 83.5272 19.2301C83.7702 17.9236 83.7702 16.5847 83.5272 15.2783C83.4252 14.7045 83.2271 14.1514 82.9411 13.6414C82.6867 13.1937 82.3332 12.8081 81.9068 12.513C81.4379 12.2344 80.9006 12.0872 80.3528 12.0872C79.805 12.0872 79.2677 12.2344 78.7989 12.513Z" fill="white"/>
<path d="M99.6921 8.45459L103.721 9.38927L97.5644 25.5113H93.8852L87.7285 9.38927L91.7574 8.45459L95.7322 20.0776L99.6921 8.45459Z" fill="white"/>
<path d="M109.646 21.826H115.665V25.5114H105.593V9.00195H115.365V12.6922H109.646V15.0023H114.572V18.6878H109.646V21.826Z" fill="white"/>
<path d="M127.919 25.5114L122.166 16.1598V25.5114H118.132V9.00195H122.166L127.919 18.3584V9.00195H131.953V25.5114H127.919Z" fill="white"/>
<path d="M137.947 26.0681L133.918 25.1867L139.932 9.00659H143.345L149.364 25.1867L145.335 26.0681L144.301 22.7411H138.981L137.947 26.0681ZM141.641 14.1546L140.129 19.0508H143.138L141.641 14.1546Z" fill="white"/>
</g>
<defs>
<clipPath id="clip0_311_22654">
<rect width="92.2955" height="17.6136" fill="white" transform="translate(57.0684 8.45459)"/>
</clipPath>
</defs>
</svg>
